<svg xmlns="http://www.w3.org/2000/svg" version="1.1" xmlns:xlink="http://www.w3.org/1999/xlink" xmlns:svgjs="http://svgjs.dev/svgjs" width="1500" height="409" viewBox="0 0 1500 409"><g transform="matrix(1,0,0,1,-0.9090909090911055,-0.055995346556557024)"><svg viewBox="0 0 396 108" data-background-color="#ffffff" preserveAspectRatio="xMidYMid meet" height="409" width="1500" xmlns="http://www.w3.org/2000/svg" xmlns:xlink="http://www.w3.org/1999/xlink"><g id="tight-bounds" transform="matrix(1,0,0,1,0.24000000000003752,0.01478605728144089)"><svg viewBox="0 0 395.5199999999999 107.97010171461784" height="107.97010171461784" width="395.5199999999999"><g><svg viewBox="0 0 395.5199999999999 107.97010171461784" height="107.97010171461784" width="395.5199999999999"><g><svg viewBox="0 0 395.5199999999999 107.97010171461784" height="107.97010171461784" width="395.5199999999999"><g id="textblocktransform"><svg viewBox="0 0 395.5199999999999 107.97010171461784" height="107.97010171461784" width="395.5199999999999" id="textblock"><g><svg viewBox="0 0 395.5199999999999 107.97010171461784" height="107.97010171461784" width="395.5199999999999"><g transform="matrix(1,0,0,1,0,0)"><svg width="395.5199999999999" viewBox="0 -29.5 166.49 45.451475597205" height="107.97010171461784" data-palette-color="#35185a"><g class="wordmark-text-0" data-fill-palette-color="primary" id="text-0"><path d="M1.5 0L0 0 0-29.5 1.5-29.5 1.5 0ZM7.5 0L3 0 3-29.5 7.5-29.5 7.5 0ZM13.5 0L9 0 9-29.5 13.5-29.5 13.5 0ZM19.5 0L18 0 18-29.5 19.5-29.5 19.5 0ZM22.5 0L21 0 21-29.5 22.5-29.5 22.5 0ZM8.8 15.95L8.8 4.35 15.45 4.35 15.45 5.5 10.1 5.5 10.1 9.15 14.45 9.15 14.45 10.25 10.1 10.25 10.1 15.95 8.8 15.95ZM25.5 0L24 0 24-29.5 25.5-29.5 25.5 0ZM31.5 0L27 0 27-29.5 31.5-29.5 31.5 0ZM34.5 0L33 0 33-29.5 34.5-29.5 34.5 0ZM43.5 0L39 0 39-29.5 43.5-29.5 43.5 0ZM46.5 0L45 0 45-29.5 46.5-29.5 46.5 0ZM32.85 15.95L32.85 14.85 35.15 14.85 35.15 5.45 33 5.45 33 4.35 38.75 4.35 38.75 5.45 36.45 5.45 36.45 14.85 38.85 14.85 38.85 15.95 32.85 15.95ZM49.5 0L48 0 48-29.5 49.5-29.5 49.5 0ZM52.5 0L51 0 51-29.5 52.5-29.5 52.5 0ZM58.5 0L54 0 54-29.5 58.5-29.5 58.5 0ZM61.5 0L60 0 60-29.5 61.5-29.5 61.5 0ZM70.5 0L66 0 66-29.5 70.5-29.5 70.5 0ZM56.3 15.95L56.3 4.35 57.55 4.35 62.4 12.95 62.4 4.35 63.85 4.35 63.85 4.5Q63.7 4.6 63.7 4.75L63.7 4.75Q63.65 4.85 63.65 5.2L63.65 5.2 63.65 15.95 62.65 15.95 57.5 6.85 57.5 15.95 56.3 15.95ZM73.49 0L71.99 0 71.99-29.5 73.49-29.5 73.49 0ZM79.49 0L74.99 0 74.99-29.5 79.49-29.5 79.49 0ZM85.49 0L80.99 0 80.99-29.5 85.49-29.5 85.49 0ZM91.49 0L89.99 0 89.99-29.5 91.49-29.5 91.49 0ZM94.49 0L92.99 0 92.99-29.5 94.49-29.5 94.49 0ZM80.79 15.95L80.79 4.35 87.44 4.35 87.44 5.5 82.09 5.5 82.09 9.15 86.44 9.15 86.44 10.25 82.09 10.25 82.09 15.95 80.79 15.95ZM97.49 0L95.99 0 95.99-29.5 97.49-29.5 97.49 0ZM103.49 0L98.99 0 98.99-29.5 103.49-29.5 103.49 0ZM106.49 0L104.99 0 104.99-29.5 106.49-29.5 106.49 0ZM115.49 0L110.99 0 110.99-29.5 115.49-29.5 115.49 0ZM118.49 0L116.99 0 116.99-29.5 118.49-29.5 118.49 0ZM104.84 15.95L104.84 14.85 107.14 14.85 107.14 5.45 104.99 5.45 104.99 4.35 110.74 4.35 110.74 5.45 108.44 5.45 108.44 14.85 110.84 14.85 110.84 15.95 104.84 15.95ZM121.49 0L119.99 0 119.99-29.5 121.49-29.5 121.49 0ZM124.49 0L122.99 0 122.99-29.5 124.49-29.5 124.49 0ZM130.49 0L125.99 0 125.99-29.5 130.49-29.5 130.49 0ZM133.49 0L131.99 0 131.99-29.5 133.49-29.5 133.49 0ZM142.49 0L137.99 0 137.99-29.5 142.49-29.5 142.49 0ZM128.29 15.95L128.29 4.35 129.54 4.35 134.39 12.95 134.39 4.35 135.84 4.35 135.84 4.5Q135.69 4.6 135.69 4.75L135.69 4.75Q135.64 4.85 135.64 5.2L135.64 5.2 135.64 15.95 134.64 15.95 129.49 6.85 129.49 15.95 128.29 15.95ZM145.49 0L143.99 0 143.99-29.5 145.49-29.5 145.49 0ZM148.49 0L146.99 0 146.99-29.5 148.49-29.5 148.49 0ZM154.49 0L149.99 0 149.99-29.5 154.49-29.5 154.49 0ZM160.49 0L158.99 0 158.99-29.5 160.49-29.5 160.49 0ZM166.49 0L161.99 0 161.99-29.5 166.49-29.5 166.49 0ZM152.34 15.95L152.34 4.35 155.04 4.35Q156.49 4.35 157.29 4.75L157.29 4.75Q158.14 5.15 158.74 5.95L158.74 5.95Q159.89 7.45 159.89 10.2L159.89 10.2Q159.79 13.05 158.59 14.5L158.59 14.5Q157.39 16 154.84 15.95L154.84 15.95 152.34 15.95ZM153.59 14.95L154.74 14.95Q158.59 14.95 158.59 10.3L158.59 10.3Q158.59 7.95 157.74 6.7L157.74 6.7Q156.84 5.45 154.94 5.45L154.94 5.45 153.59 5.45 153.59 14.95Z" fill="#35185a" data-fill-palette-color="primary"></path></g></svg></g></svg></g></svg></g></svg></g></svg></g><defs></defs></svg><rect width="395.5199999999999" height="107.97010171461784" fill="none" stroke="none" visibility="hidden"></rect></g></svg></g></svg>